<svg width="128" height="128" viewBox="0 0 128 128" fill="none" xmlns="http://www.w3.org/2000/svg">
<path id="Ellipse" d="M15.3565 102.397C14.6136 102.983 14.4847 104.062 15.0904 104.789C24.3229 115.87 37.0572 123.502 51.2186 126.408C65.9401 129.428 81.2555 127.145 94.4564 119.963C107.657 112.781 117.893 101.162 123.354 87.1607C128.815 73.1597 129.148 57.6787 124.296 43.4554C119.444 29.232 109.718 17.1827 96.8394 9.43814C83.9604 1.6936 68.7577 -1.2472 53.9196 1.1358C39.0815 3.5188 25.5641 11.0721 15.7578 22.4599C6.32456 33.4144 0.909992 47.2383 0.374082 61.6509C0.338924 62.5964 1.10043 63.3717 2.04655 63.3814C2.99268 63.3912 3.76501 62.6316 3.80162 61.6861C4.3283 48.0822 9.44857 35.0375 18.3542 24.6957C27.6329 13.9206 40.4231 6.77365 54.4629 4.51886C68.5027 2.26407 82.8876 5.04665 95.0737 12.3745C107.26 19.7024 116.462 31.1035 121.053 44.5617C125.644 58.0198 125.329 72.6679 120.162 85.9156C114.995 99.1634 105.309 110.157 92.8188 116.953C80.3282 123.749 65.8368 125.909 51.9072 123.051C38.5379 120.308 26.5128 113.112 17.7818 102.667C17.175 101.941 16.0994 101.812 15.3565 102.397Z" fill="white"/>
</svg>
